<?xml version="1.0" encoding="utf-8"?>
<!-- Generator: Adobe Illustrator 19.0.0, SVG Export Plug-In . SVG Version: 6.00 Build 0)  -->
<svg version="1.2" baseProfile="tiny" id="Layer_1" xmlns="http://www.w3.org/2000/svg" xmlns:xlink="http://www.w3.org/1999/xlink"
	 x="0px" y="0px" viewBox="0 0 958.29 1118" xml:space="preserve">
<g id="XMLID_28_">
	<g id="XMLID_38_">
		<g id="XMLID_41_">
			<path id="XMLID_42_" fill="#F2ECD4" d="M485.23,878.28l-159.65-229.3h406.86L567.4,623.47H309.51v2.45l-7.49-10.76
				c15.65-2.75,30.16-7.11,43.37-13.1c22.06-10.01,40.79-24.63,55.68-43.45c13.83-17.49,24.39-38.63,31.39-62.82
				c6.58-22.75,9.91-47.78,9.91-74.41c0-26.36-3.32-51.31-9.87-74.17c-6.96-24.29-17.44-45.58-31.12-63.28
				c-14.73-19.04-33.18-33.85-54.83-44c-23.81-11.16-51.78-16.82-83.12-16.82H19.35v683.94l25.22-213.48v-29.24h-0.03v-45.82h223.61
				c1.74-0.05,3.47-0.12,5.18-0.2l198.51,284.8l437.54,0.69l-16.7-25.51H485.23z M44.56,594.13v-10.56V258.17v-10.56H55h208.42
				c26.51,0,50.4,5.04,71,14.98c19.15,9.24,35.47,22.69,48.52,39.98c11.88,15.74,20.94,34.51,26.92,55.77
				c5.5,19.56,8.29,40.76,8.29,63.03c0,47.78-12.43,88.87-35.96,118.84c-13.39,17.05-30.24,30.29-50.09,39.33
				c-13.86,6.32-29.25,10.59-45.96,12.8L44.56,594.13z"/>
		</g>
		<g id="XMLID_39_">
			<polygon id="XMLID_40_" fill="#F2ECD4" points="603.06,329.39 740.33,329.39 745.73,329.39 748.85,333.85 851.08,478.46 
				936.44,557.43 786.93,346.06 775.25,329.39 759.25,304.9 567.4,304.9 592.62,329.39 			"/>
		</g>
	</g>
	<g id="XMLID_29_">
		<g id="XMLID_32_">
			<linearGradient id="XMLID_34_" gradientUnits="userSpaceOnUse" x1="714.4559" y1="1098.7102" x2="-70.9001" y2="313.3542">
				<stop  offset="0.0201" style="stop-color:#6E9FAC;stop-opacity:0.6"/>
				<stop  offset="0.4453" style="stop-color:#BA8CAC;stop-opacity:0.3"/>
				<stop  offset="0.944" style="stop-color:#FF7BAC;stop-opacity:0.0483"/>
				<stop  offset="1" style="stop-color:#FF7BAC;stop-opacity:0"/>
			</linearGradient>
			<path id="XMLID_33_" fill="url(#XMLID_34_)" d="M485.23,878.28l-159.65-229.3h406.86L567.4,623.47H309.51v2.45l-7.49-10.76
				c15.65-2.75,30.16-7.11,43.37-13.1c22.06-10.01,40.79-24.63,55.68-43.45c13.83-17.49,24.39-38.63,31.39-62.82
				c6.58-22.75,9.91-47.78,9.91-74.41c0-26.36-3.32-51.31-9.87-74.17c-6.96-24.29-17.44-45.58-31.12-63.28
				c-14.73-19.04-33.18-33.85-54.83-44c-23.81-11.16-51.78-16.82-83.12-16.82H19.35v683.94l25.22-213.48v-29.24h-0.03v-45.82h223.61
				c1.74-0.05,3.47-0.12,5.18-0.2l198.51,284.8l437.54,0.69l-16.7-25.51H485.23z M44.56,594.13v-10.56V258.17v-10.56H55h208.42
				c26.51,0,50.4,5.04,71,14.98c19.15,9.24,35.47,22.69,48.52,39.98c11.88,15.74,20.94,34.51,26.92,55.77
				c5.5,19.56,8.29,40.76,8.29,63.03c0,47.78-12.43,88.87-35.96,118.84c-13.39,17.05-30.24,30.29-50.09,39.33
				c-13.86,6.32-29.25,10.59-45.96,12.8L44.56,594.13z"/>
		</g>
		<g id="XMLID_30_">
			<linearGradient id="XMLID_35_" gradientUnits="userSpaceOnUse" x1="1085.7975" y1="727.3687" x2="300.4414" y2="-57.9873">
				<stop  offset="0.0201" style="stop-color:#6E9FAC;stop-opacity:0.6"/>
				<stop  offset="0.4453" style="stop-color:#BA8CAC;stop-opacity:0.3"/>
				<stop  offset="0.944" style="stop-color:#FF7BAC;stop-opacity:0.0483"/>
				<stop  offset="1" style="stop-color:#FF7BAC;stop-opacity:0"/>
			</linearGradient>
			<polygon id="XMLID_31_" fill="url(#XMLID_35_)" points="603.06,329.39 740.33,329.39 745.73,329.39 748.85,333.85 851.08,478.46 
				936.44,557.43 786.93,346.06 775.25,329.39 759.25,304.9 567.4,304.9 592.62,329.39 			"/>
		</g>
	</g>
</g>
</svg>
