<?xml version="1.0" encoding="utf-8"?>
<!-- Generator: Adobe Illustrator 21.0.0, SVG Export Plug-In . SVG Version: 6.00 Build 0)  -->
<svg version="1.1" xmlns="http://www.w3.org/2000/svg" xmlns:xlink="http://www.w3.org/1999/xlink" x="0px" y="0px" width="1600px"
	 height="1600px" viewBox="0 0 1600 1600" enable-background="new 0 0 1600 1600" xml:space="preserve">
<g id="Layer_2">
	<polygon display="none" points="1258.896,839.163 1258.896,309.276 800,44.333 341.105,309.276 341.105,839.163 800,1104.106 	"/>
</g>
<g id="Layer_1">
	<g>
		<g>
			<polygon fill="#8C8079" points="463.566,1334.369 463.566,836.007 31.972,1085.188 			"/>
			<polygon fill="#BFB2AA" points="463.566,1334.369 463.566,836.007 895.16,1085.188 			"/>
			<polygon fill="#59514F" points="31.972,612.099 421.183,836.875 31.972,1061.823 			"/>
			<polygon fill="#15BF8F" points="463.566,263.631 31.972,586.826 463.566,836.007 			"/>
			<polygon fill="#A7D9B8" points="463.566,836.961 463.566,388.166 852.234,612.563 			"/>
			<polygon fill="#F2F0D5" points="463.566,836.007 895.16,1085.188 895.16,586.826 			"/>
		</g>
		<g>
			<linearGradient id="SVGID_1_" gradientUnits="userSpaceOnUse" x1="123.1784" y1="495.6195" x2="803.9533" y2="1176.3944">
				<stop  offset="0.0201" style="stop-color:#6E9FAC;stop-opacity:0.6"/>
				<stop  offset="0.4453" style="stop-color:#BA8CAC;stop-opacity:0.3"/>
				<stop  offset="0.944" style="stop-color:#FF7BAC;stop-opacity:0.0483"/>
				<stop  offset="1" style="stop-color:#FF7BAC;stop-opacity:0"/>
			</linearGradient>
			<polygon fill="url(#SVGID_1_)" points="463.566,1334.369 463.566,836.007 31.972,1085.188 			"/>
			<linearGradient id="SVGID_2_" gradientUnits="userSpaceOnUse" x1="123.1784" y1="495.6195" x2="803.9533" y2="1176.3944">
				<stop  offset="0.0201" style="stop-color:#6E9FAC;stop-opacity:0.6"/>
				<stop  offset="0.4453" style="stop-color:#BA8CAC;stop-opacity:0.3"/>
				<stop  offset="0.944" style="stop-color:#FF7BAC;stop-opacity:0.0483"/>
				<stop  offset="1" style="stop-color:#FF7BAC;stop-opacity:0"/>
			</linearGradient>
			<polygon fill="url(#SVGID_2_)" points="463.566,1334.369 463.566,836.007 895.16,1085.188 			"/>
			<linearGradient id="SVGID_3_" gradientUnits="userSpaceOnUse" x1="123.1784" y1="495.6195" x2="803.9533" y2="1176.3944">
				<stop  offset="0.0201" style="stop-color:#6E9FAC;stop-opacity:0.6"/>
				<stop  offset="0.4453" style="stop-color:#BA8CAC;stop-opacity:0.3"/>
				<stop  offset="0.944" style="stop-color:#FF7BAC;stop-opacity:0.0483"/>
				<stop  offset="1" style="stop-color:#FF7BAC;stop-opacity:0"/>
			</linearGradient>
			<polygon fill="url(#SVGID_3_)" points="31.972,612.099 421.183,836.875 31.972,1061.823 			"/>
			<linearGradient id="SVGID_4_" gradientUnits="userSpaceOnUse" x1="123.1784" y1="495.6195" x2="803.9533" y2="1176.3944">
				<stop  offset="0.0201" style="stop-color:#6E9FAC;stop-opacity:0.6"/>
				<stop  offset="0.4453" style="stop-color:#BA8CAC;stop-opacity:0.3"/>
				<stop  offset="0.944" style="stop-color:#FF7BAC;stop-opacity:0.0483"/>
				<stop  offset="1" style="stop-color:#FF7BAC;stop-opacity:0"/>
			</linearGradient>
			<polygon fill="url(#SVGID_4_)" points="463.566,263.631 31.972,586.826 463.566,836.007 			"/>
			<linearGradient id="SVGID_5_" gradientUnits="userSpaceOnUse" x1="123.1784" y1="495.6195" x2="803.9533" y2="1176.3944">
				<stop  offset="0.0201" style="stop-color:#6E9FAC;stop-opacity:0.6"/>
				<stop  offset="0.4453" style="stop-color:#BA8CAC;stop-opacity:0.3"/>
				<stop  offset="0.944" style="stop-color:#FF7BAC;stop-opacity:0.0483"/>
				<stop  offset="1" style="stop-color:#FF7BAC;stop-opacity:0"/>
			</linearGradient>
			<polygon fill="url(#SVGID_5_)" points="463.566,836.961 463.566,388.166 852.234,612.563 			"/>
			<linearGradient id="SVGID_6_" gradientUnits="userSpaceOnUse" x1="123.1784" y1="495.6195" x2="803.9533" y2="1176.3944">
				<stop  offset="0.0201" style="stop-color:#6E9FAC;stop-opacity:0.6"/>
				<stop  offset="0.4453" style="stop-color:#BA8CAC;stop-opacity:0.3"/>
				<stop  offset="0.944" style="stop-color:#FF7BAC;stop-opacity:0.0483"/>
				<stop  offset="1" style="stop-color:#FF7BAC;stop-opacity:0"/>
			</linearGradient>
			<polygon fill="url(#SVGID_6_)" points="463.566,836.007 895.16,1085.188 895.16,586.826 			"/>
		</g>
	</g>
	<g>
		<g>
			<path d="M1236.974,1064.329l-117.138-166.295h298.513l-121.086-18.502h-189.21v1.774l-5.497-7.804
				c11.486-1.991,22.129-5.156,31.817-9.501c16.187-7.259,29.931-17.861,40.851-31.511c10.149-12.686,17.896-28.012,23.029-45.555
				c4.826-16.497,7.274-34.653,7.274-53.964c0-19.118-2.437-37.214-7.244-53.786c-5.11-17.617-12.792-33.057-22.834-45.89
				c-10.807-13.811-24.343-24.547-40.231-31.911c-17.471-8.096-37.987-12.202-60.981-12.202H895.16v496.004l18.502-154.821v-21.205
				h-0.021v-33.226H1077.7c1.276-0.037,2.543-0.086,3.803-0.147l145.643,206.545l321.017,0.497l-12.253-18.502H1236.974z
				 M913.662,858.257v-7.658V614.609v-7.658h7.658h152.916c19.452,0,36.979,3.656,52.094,10.866
				c14.047,6.701,26.024,16.456,35.597,28.995c8.718,11.418,15.362,25.026,19.75,40.448c4.035,14.183,6.082,29.563,6.082,45.712
				c0,34.648-9.123,64.45-26.381,86.183c-9.822,12.368-22.186,21.965-36.75,28.525c-10.173,4.582-21.464,7.68-33.721,9.285
				L913.662,858.257z"/>
			<polygon points="1323.423,666.264 1424.142,666.264 1428.101,666.264 1430.39,669.495 1505.401,774.367 1568.028,831.64 
				1458.328,678.35 1449.764,666.264 1438.021,648.497 1297.263,648.497 1315.765,666.264 			"/>
		</g>
		<g>
			
				<linearGradient id="SVGID_7_" gradientUnits="userSpaceOnUse" x1="1073.5702" y1="525.2474" x2="1308.6122" y2="1171.02" gradientTransform="matrix(1 0 0 1 0 -1)">
				<stop  offset="0.0586" style="stop-color:#6E9FAC"/>
				<stop  offset="0.5355" style="stop-color:#BA8CAC;stop-opacity:0.8177"/>
				<stop  offset="0.7228" style="stop-color:#FF7BAC;stop-opacity:0.5886"/>
				<stop  offset="0.944" style="stop-color:#FF7BAC;stop-opacity:0.0483"/>
				<stop  offset="1" style="stop-color:#FF7BAC;stop-opacity:0"/>
			</linearGradient>
			<path fill="url(#SVGID_7_)" d="M1236.974,1064.329l-117.138-166.295h298.513l-121.086-18.502h-189.21v1.774l-5.497-7.804
				c11.486-1.991,22.129-5.156,31.817-9.501c16.187-7.259,29.931-17.861,40.851-31.511c10.149-12.686,17.896-28.012,23.029-45.555
				c4.826-16.497,7.274-34.653,7.274-53.964c0-19.118-2.437-37.214-7.244-53.786c-5.11-17.617-12.792-33.057-22.834-45.89
				c-10.807-13.811-24.343-24.547-40.231-31.911c-17.471-8.096-37.987-12.202-60.981-12.202H895.16v496.004l18.502-154.821v-21.205
				h-0.021v-33.226H1077.7c1.276-0.037,2.543-0.086,3.803-0.147l145.643,206.545l321.017,0.497l-12.253-18.502H1236.974z
				 M913.662,858.257v-7.658V614.609v-7.658h7.658h152.916c19.452,0,36.979,3.656,52.094,10.866
				c14.047,6.701,26.024,16.456,35.597,28.995c8.718,11.418,15.362,25.026,19.75,40.448c4.035,14.183,6.082,29.563,6.082,45.712
				c0,34.648-9.123,64.45-26.381,86.183c-9.822,12.368-22.186,21.965-36.75,28.525c-10.173,4.582-21.464,7.68-33.721,9.285
				L913.662,858.257z"/>
			
				<linearGradient id="SVGID_8_" gradientUnits="userSpaceOnUse" x1="1073.5702" y1="525.2474" x2="1308.6122" y2="1171.02" gradientTransform="matrix(1 0 0 1 0 -1)">
				<stop  offset="0.0586" style="stop-color:#6E9FAC"/>
				<stop  offset="0.5355" style="stop-color:#BA8CAC;stop-opacity:0.8177"/>
				<stop  offset="0.7228" style="stop-color:#FF7BAC;stop-opacity:0.5886"/>
				<stop  offset="0.944" style="stop-color:#FF7BAC;stop-opacity:0.0483"/>
				<stop  offset="1" style="stop-color:#FF7BAC;stop-opacity:0"/>
			</linearGradient>
			<polygon fill="url(#SVGID_8_)" points="1323.423,666.264 1424.142,666.264 1428.101,666.264 1430.39,669.495 1505.401,774.367 
				1568.028,831.64 1458.328,678.35 1449.764,666.264 1438.021,648.497 1297.263,648.497 1315.765,666.264 			"/>
		</g>
	</g>
	<g>
	</g>
	<g>
	</g>
	<g>
	</g>
	<g>
	</g>
	<g>
	</g>
	<g>
	</g>
	<g>
	</g>
	<g>
	</g>
	<g>
	</g>
	<g>
	</g>
	<g>
	</g>
	<g>
	</g>
	<g>
	</g>
	<g>
	</g>
	<g>
	</g>
</g>
</svg>
