<?xml version="1.0" encoding="utf-8"?>
<!-- Generator: Adobe Illustrator 21.0.0, SVG Export Plug-In . SVG Version: 6.00 Build 0)  -->
<svg version="1.1" xmlns:x="&ns_extend;" xmlns:i="&ns_ai;" xmlns:graph="&ns_graphs;"
	 xmlns="http://www.w3.org/2000/svg" xmlns:xlink="http://www.w3.org/1999/xlink" x="0px" y="0px" viewBox="0 0 1600 1600"
	 enable-background="new 0 0 1600 1600" xml:space="preserve">
<metadata>
	<sfw  xmlns="&ns_sfw;">
		<slices></slices>
		<sliceSourceBounds  bottomLeftOrigin="true" height="1290.0359" width="1536.0562" x="-288.0281" y="-1334.3688">
			</sliceSourceBounds>
	</sfw>
</metadata>
<g id="Layer_2">
	<polygon display="none" points="1258.8955,839.1631 1258.8955,309.2762 800,44.3328 341.1046,309.2762 341.1046,839.1631 
		800,1104.1064 	"/>
</g>
<g id="Layer_1">
	<g>
		<g>
			<polygon fill="#8C8079" points="463.5659,1334.3688 463.5659,836.007 31.9719,1085.1879 			"/>
			<polygon fill="#BFB2AA" points="463.5659,1334.3688 463.5659,836.007 895.1599,1085.1879 			"/>
			<polygon fill="#59514F" points="31.9719,612.0994 421.1831,836.8747 31.9719,1061.823 			"/>
			<polygon fill="#15BF8F" points="463.5659,263.6313 31.9719,586.826 463.5659,836.007 			"/>
			<polygon fill="#A7D9B8" points="463.5659,836.9612 463.5659,388.1656 852.2342,612.5634 			"/>
			<polygon fill="#F2F0D5" points="463.5659,836.007 895.1599,1085.1879 895.1599,586.826 			"/>
		</g>
		<g>
			<linearGradient id="SVGID_1_" gradientUnits="userSpaceOnUse" x1="123.1784" y1="495.6195" x2="803.9533" y2="1176.3944">
				<stop  offset="0.0201" style="stop-color:#6E9FAC;stop-opacity:0.6"/>
				<stop  offset="0.4453" style="stop-color:#BA8CAC;stop-opacity:0.3"/>
				<stop  offset="0.944" style="stop-color:#FF7BAC;stop-opacity:0.0483"/>
				<stop  offset="1" style="stop-color:#FF7BAC;stop-opacity:0"/>
			</linearGradient>
			<polygon fill="url(#SVGID_1_)" points="463.5659,1334.3688 463.5659,836.007 31.9719,1085.1879 			"/>
			<linearGradient id="SVGID_2_" gradientUnits="userSpaceOnUse" x1="123.1784" y1="495.6195" x2="803.9533" y2="1176.3944">
				<stop  offset="0.0201" style="stop-color:#6E9FAC;stop-opacity:0.6"/>
				<stop  offset="0.4453" style="stop-color:#BA8CAC;stop-opacity:0.3"/>
				<stop  offset="0.944" style="stop-color:#FF7BAC;stop-opacity:0.0483"/>
				<stop  offset="1" style="stop-color:#FF7BAC;stop-opacity:0"/>
			</linearGradient>
			<polygon fill="url(#SVGID_2_)" points="463.5659,1334.3688 463.5659,836.007 895.1599,1085.1879 			"/>
			<linearGradient id="SVGID_3_" gradientUnits="userSpaceOnUse" x1="123.1784" y1="495.6195" x2="803.9533" y2="1176.3944">
				<stop  offset="0.0201" style="stop-color:#6E9FAC;stop-opacity:0.6"/>
				<stop  offset="0.4453" style="stop-color:#BA8CAC;stop-opacity:0.3"/>
				<stop  offset="0.944" style="stop-color:#FF7BAC;stop-opacity:0.0483"/>
				<stop  offset="1" style="stop-color:#FF7BAC;stop-opacity:0"/>
			</linearGradient>
			<polygon fill="url(#SVGID_3_)" points="31.9719,612.0994 421.1831,836.8747 31.9719,1061.823 			"/>
			<linearGradient id="SVGID_4_" gradientUnits="userSpaceOnUse" x1="123.1784" y1="495.6195" x2="803.9533" y2="1176.3944">
				<stop  offset="0.0201" style="stop-color:#6E9FAC;stop-opacity:0.6"/>
				<stop  offset="0.4453" style="stop-color:#BA8CAC;stop-opacity:0.3"/>
				<stop  offset="0.944" style="stop-color:#FF7BAC;stop-opacity:0.0483"/>
				<stop  offset="1" style="stop-color:#FF7BAC;stop-opacity:0"/>
			</linearGradient>
			<polygon fill="url(#SVGID_4_)" points="463.5659,263.6313 31.9719,586.826 463.5659,836.007 			"/>
			<linearGradient id="SVGID_5_" gradientUnits="userSpaceOnUse" x1="123.1784" y1="495.6195" x2="803.9533" y2="1176.3944">
				<stop  offset="0.0201" style="stop-color:#6E9FAC;stop-opacity:0.6"/>
				<stop  offset="0.4453" style="stop-color:#BA8CAC;stop-opacity:0.3"/>
				<stop  offset="0.944" style="stop-color:#FF7BAC;stop-opacity:0.0483"/>
				<stop  offset="1" style="stop-color:#FF7BAC;stop-opacity:0"/>
			</linearGradient>
			<polygon fill="url(#SVGID_5_)" points="463.5659,836.9612 463.5659,388.1656 852.2342,612.5634 			"/>
			<linearGradient id="SVGID_6_" gradientUnits="userSpaceOnUse" x1="123.1784" y1="495.6195" x2="803.9533" y2="1176.3944">
				<stop  offset="0.0201" style="stop-color:#6E9FAC;stop-opacity:0.6"/>
				<stop  offset="0.4453" style="stop-color:#BA8CAC;stop-opacity:0.3"/>
				<stop  offset="0.944" style="stop-color:#FF7BAC;stop-opacity:0.0483"/>
				<stop  offset="1" style="stop-color:#FF7BAC;stop-opacity:0"/>
			</linearGradient>
			<polygon fill="url(#SVGID_6_)" points="463.5659,836.007 895.1599,1085.1879 895.1599,586.826 			"/>
		</g>
	</g>
	<g>
		<g>
			<path d="M1236.9735,1064.3286l-117.1376-166.2947h298.5133l-121.0862-18.5018h-189.2103v1.7739l-5.4967-7.8038
				c11.4858-1.9908,22.1285-5.1557,31.8167-9.5007c16.1865-7.2594,29.9305-17.861,40.8506-31.5111
				c10.1488-12.6859,17.8965-28.0123,23.0287-45.5547c4.8262-16.4968,7.2736-34.6528,7.2736-53.9642
				c0-19.1177-2.4373-37.2139-7.244-53.7859c-5.1101-17.6171-12.7924-33.0566-22.8339-45.8897
				c-10.8068-13.8109-24.3425-24.5475-40.2311-31.9108c-17.4706-8.0963-37.9874-12.2016-60.981-12.2016H895.1599v496.0045
				l18.5018-154.8213v-21.2053h-0.0209v-33.2263h164.0593c1.2761-0.0366,2.5431-0.086,3.8032-0.1466l145.6431,206.5448
				l321.0173,0.4973l-12.2528-18.5018H1236.9735z M913.6617,858.2572v-7.658V614.6085v-7.658h7.658h152.9159
				c19.4524,0,36.9795,3.6559,52.0942,10.8663c14.0474,6.7011,26.0238,16.4565,35.5967,28.9949
				c8.7177,11.4182,15.3624,25.0265,19.7504,40.4476c4.0354,14.183,6.0819,29.563,6.0819,45.7121
				c0,34.6484-9.1227,64.4495-26.3812,86.1829c-9.8215,12.3676-22.1858,21.9648-36.7501,28.5253
				c-10.1727,4.5821-21.4641,7.6797-33.7207,9.2853L913.6617,858.2572z"/>
			<polygon points="1323.4229,666.2642 1424.1421,666.2642 1428.1012,666.2642 1430.3904,669.4949 1505.4005,774.3668 
				1568.0281,831.6404 1458.3279,678.3502 1449.7635,666.2642 1438.0208,648.4974 1297.2631,648.4974 1315.7649,666.2642 			"/>
		</g>
		<g>
			
				<linearGradient id="SVGID_7_" gradientUnits="userSpaceOnUse" x1="1073.5702" y1="525.2474" x2="1308.6122" y2="1171.02" gradientTransform="matrix(1 0 0 1 0 -1)">
				<stop  offset="0.0586" style="stop-color:#6E9FAC"/>
				<stop  offset="0.5355" style="stop-color:#BA8CAC;stop-opacity:0.8177"/>
				<stop  offset="0.7228" style="stop-color:#FF7BAC;stop-opacity:0.5886"/>
				<stop  offset="0.944" style="stop-color:#FF7BAC;stop-opacity:0.0483"/>
				<stop  offset="1" style="stop-color:#FF7BAC;stop-opacity:0"/>
			</linearGradient>
			<path fill="url(#SVGID_7_)" d="M1236.9735,1064.3286l-117.1376-166.2947h298.5133l-121.0862-18.5018h-189.2103v1.7739
				l-5.4967-7.8038c11.4858-1.9908,22.1285-5.1557,31.8167-9.5007c16.1865-7.2594,29.9305-17.861,40.8506-31.5111
				c10.1488-12.6859,17.8965-28.0123,23.0287-45.5547c4.8262-16.4968,7.2736-34.6528,7.2736-53.9642
				c0-19.1177-2.4373-37.2139-7.244-53.7859c-5.1101-17.6171-12.7924-33.0566-22.8339-45.8897
				c-10.8068-13.8109-24.3425-24.5475-40.2311-31.9108c-17.4706-8.0963-37.9874-12.2016-60.981-12.2016H895.1599v496.0045
				l18.5018-154.8213v-21.2053h-0.0209v-33.2263h164.0593c1.2761-0.0366,2.5431-0.086,3.8032-0.1466l145.6431,206.5448
				l321.0173,0.4973l-12.2528-18.5018H1236.9735z M913.6617,858.2572v-7.658V614.6085v-7.658h7.658h152.9159
				c19.4524,0,36.9795,3.6559,52.0942,10.8663c14.0474,6.7011,26.0238,16.4565,35.5967,28.9949
				c8.7177,11.4182,15.3624,25.0265,19.7504,40.4476c4.0354,14.183,6.0819,29.563,6.0819,45.7121
				c0,34.6484-9.1227,64.4495-26.3812,86.1829c-9.8215,12.3676-22.1858,21.9648-36.7501,28.5253
				c-10.1727,4.5821-21.4641,7.6797-33.7207,9.2853L913.6617,858.2572z"/>
			
				<linearGradient id="SVGID_8_" gradientUnits="userSpaceOnUse" x1="1073.5702" y1="525.2474" x2="1308.6122" y2="1171.02" gradientTransform="matrix(1 0 0 1 0 -1)">
				<stop  offset="0.0586" style="stop-color:#6E9FAC"/>
				<stop  offset="0.5355" style="stop-color:#BA8CAC;stop-opacity:0.8177"/>
				<stop  offset="0.7228" style="stop-color:#FF7BAC;stop-opacity:0.5886"/>
				<stop  offset="0.944" style="stop-color:#FF7BAC;stop-opacity:0.0483"/>
				<stop  offset="1" style="stop-color:#FF7BAC;stop-opacity:0"/>
			</linearGradient>
			<polygon fill="url(#SVGID_8_)" points="1323.4229,666.2642 1424.1421,666.2642 1428.1012,666.2642 1430.3904,669.4949 
				1505.4005,774.3668 1568.0281,831.6404 1458.3279,678.3502 1449.7635,666.2642 1438.0208,648.4974 1297.2631,648.4974 
				1315.7649,666.2642 			"/>
		</g>
	</g>
	<g>
	</g>
	<g>
	</g>
	<g>
	</g>
	<g>
	</g>
	<g>
	</g>
	<g>
	</g>
	<g>
	</g>
	<g>
	</g>
	<g>
	</g>
	<g>
	</g>
	<g>
	</g>
	<g>
	</g>
	<g>
	</g>
	<g>
	</g>
	<g>
	</g>
</g>
</svg>
